<?xml version="1.0" encoding="utf-8"?>
<!-- Generator: Adobe Illustrator 23.0.3, SVG Export Plug-In . SVG Version: 6.00 Build 0)  -->
<svg version="1.1" id="Layer_1" xmlns="http://www.w3.org/2000/svg" xmlns:xlink="http://www.w3.org/1999/xlink" x="0px" y="0px"
	 viewBox="0 0 204.97 74" style="enable-background:new 0 0 204.97 74;" xml:space="preserve">
<style type="text/css">
	.st0{fill:#FFC843;}
	.st1{fill:#FFFFFF;}
</style>
<g>
	<g>
		<path class="st0" d="M200.66,24.9H64.85L47.04,7.1c-0.64-0.63-1.48-0.98-2.38-0.98c-0.89,0-1.74,0.35-2.37,0.98l-28,28
			c-1.31,1.31-1.31,3.44,0,4.74l28,28c0.63,0.63,1.48,0.98,2.37,0.98c0.9,0,1.74-0.35,2.38-0.98l18.73-18.73h110.68L200.66,24.9z"/>
		<g>
			<path d="M49.96,37.08l-0.66-2.37l5.25-1.27l-1.35-5.6l-2.2,0.53l0.54-3.32l-4-4.84l-2.72-1.3l-2.04,0.61l-1.02,0.74l-2.08,4.83
				l-5.26,2.95l1.06,2.05l6-3.33l0.57-1.33l0.91,4.68L38.8,36.9l-1.56,9.54l3.2,0.52l1.46-8.91l3.42-5.57l1.66,6l5.85,8.48
				l2.67-1.84L49.96,37.08z M49.08,25.73l-0.53,3.24l-0.76,0.18l-0.15-5.17L49.08,25.73z"/>
			<path d="M42.43,19.11c1.48,0,2.69-1.2,2.69-2.69c0-1.49-1.21-2.69-2.69-2.69c-1.49,0-2.69,1.2-2.69,2.69
				C39.74,17.91,40.95,19.11,42.43,19.11z"/>
		</g>
		<rect x="26.88" y="48.46" width="35.82" height="0.93"/>
	</g>
	<g>
		<g>
			<g>
				<path d="M75.29,33.36c-0.53,0.56-0.83,1.36-0.89,2.39l8.09-0.02v2.42h-8.11c0,0.49,0.06,0.96,0.16,1.41
					c0.11,0.45,0.33,0.87,0.67,1.24c0.3,0.35,0.65,0.56,1.06,0.65c0.41,0.08,0.82,0.12,1.25,0.12c0.03,0,0.06,0,0.09,0
					c0.03,0,0.06,0,0.09,0l4.8-0.02v2.42h-4.93c-0.79,0-1.54-0.07-2.27-0.21c-0.73-0.14-1.42-0.47-2.06-0.99
					c-0.77-0.63-1.31-1.4-1.62-2.31c-0.31-0.91-0.48-1.84-0.5-2.8c-0.01-0.21-0.02-0.41-0.01-0.6c0.01-0.19,0.02-0.39,0.03-0.58
					c0.14-2.19,0.74-3.8,1.79-4.84c1.05-1.03,2.63-1.54,4.73-1.54l4.85-0.02v2.42h-4.8C76.62,32.51,75.82,32.8,75.29,33.36z"/>
				<path d="M72.05,44.2c-0.25-0.21-0.49-0.43-0.71-0.66l-24.29,24.3c-0.64,0.63-1.48,0.98-2.38,0.98c-0.89,0-1.74-0.35-2.37-0.98
					l-28-28c-1.31-1.31-1.31-3.43,0-4.74l28-28c0.63-0.63,1.48-0.98,2.37-0.98c0.9,0,1.74,0.35,2.38,0.98l23.94,23.94
					c0.19-0.25,0.4-0.5,0.62-0.72c0.55-0.54,1.2-0.97,1.94-1.31L49.34,4.81c-1.25-1.25-2.9-1.93-4.67-1.93
					c-1.76,0-3.42,0.69-4.66,1.93l-28,27.99c-2.57,2.57-2.57,6.76,0,9.33l28,28c1.24,1.24,2.9,1.93,4.66,1.93
					c1.76,0,3.42-0.69,4.67-1.93l24.78-24.78C73.39,45.11,72.7,44.73,72.05,44.2z"/>
			</g>
		</g>
		<g>
			<path d="M29.71,32.55c-0.63,0.01-1.16,0.15-1.6,0.4c-0.43,0.25-0.65,0.73-0.65,1.44c0,0.54,0.18,0.93,0.55,1.16
				c0.37,0.23,0.8,0.35,1.29,0.35l3.87-0.02c0.14,0.01,0.29,0.02,0.45,0.02c0.15,0,0.31,0.01,0.46,0.02c0.45,0.03,0.9,0.1,1.33,0.22
				c0.44,0.12,0.83,0.35,1.16,0.67c0.31,0.28,0.54,0.63,0.7,1.02c0.16,0.4,0.25,0.81,0.29,1.24c0.01,0.13,0.02,0.25,0.03,0.38
				c0.01,0.12,0.01,0.25,0.01,0.38c-0.03,1.61-0.47,2.71-1.34,3.28c-0.86,0.58-2.04,0.86-3.52,0.86h-7.77v-2.48h7.31
				c0.65,0.01,1.2-0.09,1.67-0.31c0.47-0.22,0.66-0.72,0.57-1.49c-0.06-0.61-0.29-0.98-0.68-1.12c-0.39-0.14-0.85-0.22-1.38-0.23
				l-3.44-0.02c-1.43,0.01-2.56-0.28-3.39-0.86c-0.83-0.59-1.24-1.65-1.23-3.18c0.02-1.61,0.47-2.71,1.34-3.3
				c0.87-0.59,2.05-0.88,3.53-0.88l7.64-0.02v2.48H29.71z"/>
			<path d="M58.74,31.84c0.84-1.16,2.7-1.74,5.56-1.74l4.45-0.02v2.42h-4.7c-1.23,0.03-2.12,0.29-2.7,0.79
				c-0.57,0.5-0.89,1.37-0.96,2.61l8.36-0.02v2.4h-8.36v5.69h-2.92v-6.38C57.47,34.91,57.89,33,58.74,31.84z"/>
			<path d="M75.36,33.35c-0.53,0.56-0.83,1.36-0.89,2.39l8.09-0.02v2.42h-8.1c0,0.49,0.05,0.96,0.16,1.41
				c0.11,0.45,0.33,0.86,0.67,1.24c0.29,0.35,0.65,0.56,1.05,0.65c0.41,0.08,0.82,0.13,1.25,0.13c0.03,0,0.06,0,0.09,0
				s0.06,0,0.09,0l4.8-0.02v2.42h-4.93c-0.79,0-1.54-0.07-2.27-0.21c-0.73-0.14-1.42-0.47-2.06-0.99c-0.77-0.63-1.32-1.4-1.62-2.31
				c-0.31-0.91-0.48-1.84-0.5-2.79c-0.01-0.21-0.02-0.41-0.01-0.6c0.01-0.19,0.02-0.39,0.03-0.58c0.14-2.19,0.74-3.81,1.79-4.84
				c1.05-1.03,2.63-1.55,4.73-1.55l4.85-0.02v2.42h-4.8C76.69,32.51,75.89,32.79,75.36,33.35z"/>
			<path d="M99.6,30.07c2.11,0.01,3.69,0.54,4.74,1.57c1.05,1.03,1.64,2.64,1.78,4.84c0.01,0.19,0.02,0.39,0.03,0.58
				c0,0.19,0,0.39-0.01,0.6c-0.03,0.95-0.19,1.89-0.5,2.79c-0.31,0.91-0.85,1.68-1.62,2.31c-0.63,0.52-1.31,0.85-2.04,0.99
				c-0.73,0.14-1.49,0.21-2.29,0.21h-6.44V30.07H99.6z M99.55,32.49h-3.39v9.05h3.39c0.03,0.01,0.06,0.02,0.09,0.02
				c0.03,0,0.06,0,0.09,0c0.43,0,0.84-0.04,1.25-0.13c0.41-0.09,0.76-0.3,1.07-0.65c0.31-0.36,0.53-0.77,0.65-1.22
				c0.12-0.45,0.2-0.91,0.24-1.37c0.01-0.19,0.02-0.39,0.02-0.58c0-0.19,0-0.39,0-0.58c0-0.19,0-0.4,0-0.61
				c0-0.21-0.01-0.42-0.04-0.63c-0.02-0.45-0.1-0.9-0.22-1.33c-0.12-0.44-0.34-0.83-0.65-1.16c-0.31-0.35-0.67-0.57-1.07-0.66
				c-0.41-0.09-0.82-0.14-1.25-0.14c-0.02,0-0.05,0-0.09,0c-0.03,0-0.06,0-0.09,0V32.49z"/>
			<path d="M116.71,30.07c0.14,0.01,0.28,0.02,0.41,0.02c0.14,0,0.27,0.01,0.41,0.02c0.53,0.03,1.05,0.11,1.56,0.25
				c0.51,0.14,0.96,0.41,1.34,0.79c0.35,0.33,0.61,0.73,0.78,1.18c0.18,0.45,0.28,0.92,0.32,1.39c0,0.09,0,0.18,0.01,0.27
				c0.01,0.09,0.01,0.18,0.01,0.27c0.01,0.97-0.21,1.8-0.67,2.5c-0.46,0.7-1.17,1.17-2.14,1.4l3.46,5.78h-3.29l-3.06-5.45h-3.44
				v5.45h-2.92V30.07H116.71z M116.01,32.55h-3.58v3.5h3.58c0.03,0.01,0.05,0.02,0.08,0.02c0.03,0,0.05,0,0.08,0
				c0.62,0,1.18-0.09,1.69-0.28c0.51-0.19,0.76-0.68,0.74-1.48c0-0.82-0.27-1.32-0.8-1.49c-0.53-0.17-1.13-0.25-1.79-0.25V32.55z"/>
			<path d="M125.39,43.96V30.07h3.06v13.89H125.39z"/>
			<path d="M130.65,30.07h3.29l4.18,10.35l4.27-10.35h3.12l-5.81,13.89h-3.02L130.65,30.07z"/>
			<path d="M150.93,33.35c-0.53,0.56-0.83,1.36-0.89,2.39l8.09-0.02v2.42h-8.1c0,0.49,0.06,0.96,0.16,1.41
				c0.11,0.45,0.33,0.86,0.67,1.24c0.3,0.35,0.65,0.56,1.05,0.65c0.41,0.08,0.82,0.13,1.25,0.13c0.02,0,0.06,0,0.09,0s0.06,0,0.09,0
				l4.8-0.02v2.42h-4.93c-0.79,0-1.54-0.07-2.27-0.21c-0.73-0.14-1.42-0.47-2.06-0.99c-0.78-0.63-1.32-1.4-1.63-2.31
				c-0.31-0.91-0.48-1.84-0.5-2.79c-0.01-0.21-0.02-0.41-0.01-0.6c0.01-0.19,0.01-0.39,0.03-0.58c0.14-2.19,0.74-3.81,1.79-4.84
				c1.05-1.03,2.63-1.55,4.73-1.55l4.86-0.02v2.42h-4.8C152.25,32.51,151.45,32.79,150.93,33.35z"/>
			<path d="M169.23,30.07c0.14,0.01,0.28,0.02,0.42,0.02c0.13,0,0.27,0.01,0.41,0.02c0.53,0.03,1.05,0.11,1.56,0.25
				c0.51,0.14,0.96,0.41,1.34,0.79c0.35,0.33,0.61,0.73,0.78,1.18c0.17,0.45,0.28,0.92,0.32,1.39c0,0.09,0,0.18,0.01,0.27
				c0.01,0.09,0.01,0.18,0.01,0.27c0.01,0.97-0.21,1.8-0.67,2.5c-0.46,0.7-1.17,1.17-2.14,1.4l3.46,5.78h-3.29l-3.06-5.45h-3.44
				v5.45h-2.92V30.07H169.23z M168.53,32.55h-3.58v3.5h3.58c0.03,0.01,0.05,0.02,0.08,0.02c0.03,0,0.05,0,0.08,0
				c0.62,0,1.18-0.09,1.69-0.28c0.51-0.19,0.76-0.68,0.74-1.48c0-0.82-0.27-1.32-0.8-1.49c-0.54-0.17-1.13-0.25-1.79-0.25V32.55z"/>
		</g>
	</g>
	<g>
		<path class="st1" d="M74.05,53.7h4.71v0.99H75.2v1.71h3.3v0.94h-3.3v1.91h3.63v0.99h-4.77V53.7z"/>
		<path class="st1" d="M86.03,53.7h2.71c2.02,0,2.88,1.47,2.88,3.27c0,1.8-0.87,3.27-2.88,3.27h-2.71V53.7z M87.18,59.3h1.13
			c1.79,0,2.18-1.03,2.18-2.34c0-1.31-0.39-2.33-2.18-2.33h-1.13V59.3z"/>
		<path class="st1" d="M98.78,53.7h1.15v3.81c0,0.88,0.05,1.9,1.54,1.9c1.49,0,1.54-1.02,1.54-1.9V53.7h1.14v4.19
			c0,1.68-1.07,2.51-2.68,2.51s-2.68-0.83-2.68-2.51V53.7z"/>
		<path class="st1" d="M116.09,55.77c-0.19-0.75-0.68-1.3-1.63-1.3c-1.4,0-1.99,1.24-1.99,2.49c0,1.25,0.59,2.49,1.99,2.49
			c1.02,0,1.57-0.76,1.67-1.71h1.12c-0.09,1.57-1.2,2.65-2.78,2.65c-1.96,0-3.13-1.56-3.13-3.43c0-1.87,1.17-3.42,3.13-3.42
			c1.47,0.01,2.64,0.82,2.78,2.23H116.09z"/>
		<path class="st1" d="M126.24,53.7h1.22l2.52,6.54h-1.23l-0.61-1.73h-2.61l-0.61,1.73h-1.18L126.24,53.7z M125.84,57.63h2
			l-0.98-2.81h-0.03L125.84,57.63z"/>
		<path class="st1" d="M135.34,53.7h5.29v0.99h-2.08v5.55h-1.14v-5.55h-2.07V53.7z"/>
		<path class="st1" d="M147.6,53.7h1.15v6.54h-1.15V53.7z"/>
		<path class="st1" d="M162.28,56.97c0,1.87-1.17,3.43-3.13,3.43c-1.96,0-3.13-1.56-3.13-3.43c0-1.87,1.17-3.42,3.13-3.42
			C161.11,53.54,162.28,55.1,162.28,56.97z M157.16,56.97c0,1.25,0.59,2.49,1.99,2.49c1.4,0,1.99-1.24,1.99-2.49
			c0-1.25-0.59-2.49-1.99-2.49C157.75,54.47,157.16,55.71,157.16,56.97z"/>
		<path class="st1" d="M169.48,53.7h1.21l2.99,4.82h0.02V53.7h1.09v6.54h-1.21l-2.98-4.81h-0.03v4.81h-1.09V53.7z"/>
	</g>
</g>
</svg>
