<?xml version="1.0" encoding="utf-8"?>
<!-- Generator: Adobe Illustrator 23.0.3, SVG Export Plug-In . SVG Version: 6.00 Build 0)  -->
<svg version="1.1" id="Layer_1" xmlns="http://www.w3.org/2000/svg" xmlns:xlink="http://www.w3.org/1999/xlink" x="0px" y="0px"
	 viewBox="0 0 320 74" style="enable-background:new 0 0 320 74;" xml:space="preserve">
<style type="text/css">
	.st0{fill:#165EA6;}
	.st1{fill:#FFFFFF;}
	.st2{fill:#FFC943;}
	.st3{fill:#010101;}
</style>
<g>
	<polygon class="st0" points="-27.34,0.08 -27.34,73.89 120.56,73.89 195.72,0.08 	"/>
	<polygon class="st0" points="201.63,0.08 127.07,73.89 184.77,73.89 261.91,0.08 	"/>
	<rect x="-125.92" class="st0" width="98.58" height="0.08"/>
</g>
<polygon class="st1" points="195.72,0.08 120.56,73.89 127.07,73.89 201.63,0.08 "/>
<g>
	<g>
		<path class="st2" d="M138.4,27.85H51.66L40.3,16.48c-0.4-0.4-0.95-0.63-1.52-0.63c-0.57,0-1.11,0.23-1.51,0.63L19.39,34.35
			c-0.83,0.83-0.83,2.19,0,3.03l17.88,17.88c0.4,0.4,0.95,0.63,1.51,0.63c0.57,0,1.11-0.23,1.52-0.63L52.25,43.3h70.68L138.4,27.85z
			"/>
		<g>
			<path class="st3" d="M42.16,35.62l-0.42-1.51l3.35-0.81l-0.86-3.57l-1.41,0.34l0.35-2.12l-2.56-3.09l-1.74-0.83l-1.3,0.39
				l-0.66,0.47l-1.32,3.09l-3.36,1.89l0.68,1.31l3.83-2.13l0.37-0.84l0.58,2.99l-2.65,4.32l-0.99,6.1l2.04,0.34l0.93-5.69l2.19-3.55
				l1.06,3.83l3.73,5.41l1.71-1.17L42.16,35.62z M41.6,28.37l-0.34,2.07l-0.49,0.11l-0.09-3.3L41.6,28.37z"/>
			<path class="st3" d="M37.35,24.14c0.95,0,1.72-0.77,1.72-1.72s-0.77-1.72-1.72-1.72c-0.95,0-1.72,0.77-1.72,1.72
				C35.63,23.37,36.4,24.14,37.35,24.14z"/>
		</g>
		<rect x="27.42" y="42.88" class="st3" width="22.87" height="0.59"/>
	</g>
	<g>
		<g>
			<g>
				<path class="st3" d="M58.33,33.24c-0.34,0.36-0.53,0.86-0.57,1.53l5.17-0.01v1.55h-5.18c0,0.31,0.04,0.61,0.1,0.9
					c0.08,0.29,0.22,0.55,0.43,0.79c0.19,0.23,0.41,0.36,0.68,0.41c0.26,0.06,0.53,0.08,0.8,0.08c0.02,0,0.04,0,0.06,0
					s0.04,0,0.06,0l3.07-0.01v1.55h-3.15c-0.51,0-0.98-0.05-1.45-0.14c-0.47-0.09-0.91-0.3-1.32-0.63c-0.5-0.4-0.83-0.9-1.03-1.47
					c-0.2-0.58-0.3-1.17-0.32-1.78c-0.01-0.13-0.01-0.26-0.01-0.38c0-0.12,0.01-0.24,0.02-0.37c0.09-1.4,0.47-2.43,1.14-3.09
					c0.68-0.66,1.68-0.98,3.02-0.98l3.1-0.02v1.55h-3.07C59.18,32.7,58.67,32.88,58.33,33.24z"/>
				<path class="st3" d="M56.27,40.17c-0.16-0.13-0.31-0.27-0.45-0.42L40.3,55.26c-0.4,0.4-0.95,0.63-1.52,0.63
					c-0.57,0-1.11-0.23-1.51-0.63L19.39,37.38c-0.83-0.83-0.83-2.19,0-3.03l17.88-17.88c0.4-0.4,0.95-0.63,1.51-0.63
					c0.57,0,1.11,0.23,1.52,0.63l15.29,15.29c0.12-0.16,0.25-0.32,0.39-0.46c0.36-0.35,0.77-0.62,1.24-0.83L41.76,15.02
					c-0.8-0.8-1.86-1.24-2.98-1.24c-1.13,0-2.19,0.44-2.97,1.24L17.93,32.89c-1.64,1.64-1.64,4.31,0,5.96L35.8,56.72
					c0.8,0.8,1.85,1.23,2.97,1.23s2.19-0.44,2.98-1.23L57.58,40.9C57.12,40.74,56.68,40.5,56.27,40.17z"/>
			</g>
		</g>
		<g>
			<path class="st3" d="M29.23,32.72c-0.4,0.01-0.74,0.09-1.02,0.25c-0.27,0.16-0.41,0.47-0.41,0.92c0,0.35,0.11,0.59,0.35,0.74
				c0.23,0.15,0.51,0.23,0.83,0.23l2.47-0.01c0.09,0.01,0.19,0.01,0.28,0.01c0.09,0,0.2,0.01,0.3,0.01
				c0.29,0.02,0.57,0.07,0.85,0.14s0.53,0.23,0.74,0.43c0.2,0.18,0.35,0.4,0.44,0.66c0.1,0.25,0.16,0.52,0.19,0.79
				c0.01,0.08,0.01,0.16,0.02,0.24c0,0.08,0.01,0.16,0.01,0.24c-0.02,1.03-0.3,1.73-0.85,2.09s-1.3,0.55-2.25,0.55H26.2v-1.59h4.67
				c0.41,0.01,0.77-0.06,1.07-0.2c0.3-0.14,0.42-0.46,0.37-0.95c-0.04-0.38-0.19-0.63-0.43-0.71c-0.24-0.09-0.54-0.14-0.88-0.15
				l-2.19-0.01c-0.91,0.01-1.64-0.18-2.17-0.55c-0.53-0.38-0.8-1.05-0.79-2.04c0.02-1.03,0.3-1.74,0.86-2.11
				c0.55-0.38,1.3-0.56,2.25-0.56l4.88-0.01v1.59L29.23,32.72L29.23,32.72z"/>
			<path class="st3" d="M47.76,32.27c0.53-0.74,1.73-1.11,3.55-1.11l2.84-0.01v1.55h-3c-0.78,0.02-1.36,0.19-1.73,0.51
				c-0.37,0.32-0.57,0.87-0.61,1.67l5.34-0.01v1.53h-5.34v3.63h-1.87v-4.08C46.95,34.23,47.23,33.01,47.76,32.27z"/>
			<path class="st3" d="M58.38,33.24c-0.34,0.36-0.53,0.86-0.57,1.53l5.17-0.01v1.55H57.8c0,0.31,0.04,0.61,0.1,0.9
				c0.07,0.29,0.22,0.55,0.42,0.79c0.19,0.23,0.41,0.36,0.68,0.41s0.53,0.08,0.8,0.08c0.02,0,0.04,0,0.06,0c0.02,0,0.04,0,0.06,0
				l3.07-0.01v1.55h-3.15c-0.51,0-0.98-0.05-1.45-0.13c-0.47-0.09-0.9-0.3-1.31-0.63c-0.5-0.4-0.84-0.9-1.04-1.47
				c-0.2-0.58-0.3-1.17-0.32-1.78c-0.01-0.13-0.01-0.26-0.01-0.38s0.01-0.24,0.02-0.37c0.09-1.4,0.47-2.43,1.14-3.09
				c0.68-0.66,1.68-0.98,3.02-0.98l3.1-0.01v1.55h-3.07C59.23,32.69,58.72,32.88,58.38,33.24z"/>
			<path class="st3" d="M73.86,31.15c1.35,0.01,2.35,0.34,3.03,1c0.67,0.66,1.05,1.69,1.13,3.09c0.01,0.12,0.02,0.24,0.02,0.37
				c0,0.12,0,0.25-0.01,0.38c-0.02,0.61-0.12,1.2-0.32,1.78s-0.54,1.07-1.04,1.47c-0.4,0.33-0.83,0.54-1.3,0.63
				C74.9,39.96,74.42,40,73.91,40h-4.12v-8.87h4.07V31.15z M73.82,32.68h-2.16v5.78h2.16c0.02,0.01,0.04,0.01,0.06,0.01
				s0.04,0,0.06,0c0.27,0,0.53-0.03,0.8-0.08c0.26-0.06,0.49-0.19,0.68-0.41c0.2-0.23,0.34-0.49,0.41-0.78
				c0.08-0.29,0.13-0.58,0.15-0.88c0.01-0.12,0.01-0.24,0.01-0.37c0-0.12,0-0.24,0-0.38c0-0.12,0-0.25,0-0.39
				c0-0.14-0.01-0.27-0.03-0.4c-0.02-0.29-0.07-0.57-0.14-0.85c-0.08-0.28-0.22-0.53-0.41-0.74c-0.2-0.23-0.42-0.37-0.68-0.42
				c-0.26-0.06-0.53-0.08-0.8-0.08c-0.02,0-0.04,0-0.06,0C73.85,32.68,73.83,32.68,73.82,32.68L73.82,32.68L73.82,32.68z"/>
			<path class="st3" d="M84.78,31.15c0.09,0.01,0.18,0.01,0.26,0.01s0.18,0,0.26,0.01c0.34,0.02,0.67,0.08,0.99,0.16
				c0.33,0.09,0.61,0.26,0.86,0.51c0.23,0.22,0.39,0.47,0.5,0.75c0.11,0.29,0.18,0.58,0.21,0.89c0,0.06,0,0.11,0.01,0.18
				c0,0.06,0.01,0.11,0.01,0.18c0.01,0.62-0.13,1.15-0.43,1.59c-0.29,0.45-0.75,0.75-1.37,0.9l2.21,3.7h-2.1l-1.95-3.48h-2.19v3.48
				h-1.87v-8.87C80.18,31.15,84.78,31.15,84.78,31.15z M84.34,32.72h-2.29v2.23h2.29c0.02,0.01,0.03,0.01,0.05,0.01
				c0.02,0,0.03,0,0.05,0c0.39,0,0.76-0.06,1.08-0.18c0.33-0.12,0.48-0.43,0.48-0.95c0-0.53-0.17-0.84-0.52-0.95
				C85.14,32.79,84.75,32.73,84.34,32.72L84.34,32.72L84.34,32.72z"/>
			<path class="st3" d="M90.33,40.01v-8.87h1.95v8.87H90.33z"/>
			<path class="st3" d="M93.69,31.15h2.1l2.67,6.61l2.73-6.61h1.99l-3.7,8.87h-1.92L93.69,31.15z"/>
			<path class="st3" d="M106.63,33.24c-0.34,0.36-0.53,0.86-0.57,1.53l5.16-0.01v1.55h-5.18c0,0.31,0.04,0.61,0.1,0.9
				c0.07,0.29,0.22,0.55,0.42,0.79c0.19,0.23,0.41,0.36,0.68,0.41s0.53,0.08,0.8,0.08c0.02,0,0.04,0,0.06,0s0.04,0,0.06,0l3.07-0.01
				v1.55h-3.15c-0.5,0-0.98-0.05-1.45-0.13c-0.47-0.09-0.9-0.3-1.31-0.63c-0.5-0.4-0.84-0.9-1.04-1.47c-0.2-0.58-0.3-1.17-0.32-1.78
				c-0.01-0.13-0.01-0.26-0.01-0.38s0.01-0.24,0.02-0.37c0.09-1.4,0.47-2.43,1.14-3.09c0.68-0.66,1.68-0.98,3.02-0.98l3.1-0.01v1.55
				h-3.07C107.48,32.69,106.97,32.88,106.63,33.24z"/>
			<path class="st3" d="M118.32,31.15c0.09,0.01,0.18,0.01,0.26,0.01c0.08,0,0.17,0,0.26,0.01c0.34,0.02,0.67,0.08,0.99,0.16
				c0.33,0.09,0.61,0.26,0.86,0.51c0.23,0.22,0.38,0.47,0.5,0.75c0.11,0.29,0.18,0.58,0.21,0.89c0,0.06,0,0.11,0.01,0.18
				c0.01,0.06,0.01,0.11,0.01,0.18c0.01,0.62-0.13,1.15-0.43,1.59c-0.29,0.45-0.75,0.75-1.37,0.9l2.21,3.7h-2.1l-1.95-3.48h-2.2
				v3.48h-1.87v-8.87C113.71,31.15,118.32,31.15,118.32,31.15z M117.88,32.72h-2.29v2.23h2.29c0.02,0.01,0.03,0.01,0.05,0.01
				c0.02,0,0.03,0,0.05,0c0.39,0,0.76-0.06,1.08-0.18c0.33-0.12,0.48-0.43,0.48-0.95c0-0.53-0.17-0.84-0.52-0.95
				C118.67,32.79,118.29,32.73,117.88,32.72L117.88,32.72L117.88,32.72z"/>
		</g>
	</g>
	<g>
		<path class="st1" d="M57.54,46.23h3.01v0.63h-2.28v1.1h2.1v0.6h-2.1v1.22h2.32v0.63h-3.05V46.23z"/>
		<path class="st1" d="M65.2,46.23h1.74c1.28,0,1.84,0.94,1.84,2.09s-0.55,2.09-1.84,2.09H65.2V46.23z M65.93,49.81h0.72
			c1.14,0,1.39-0.66,1.39-1.49s-0.24-1.49-1.39-1.49h-0.72V49.81z"/>
		<path class="st1" d="M73.34,46.23h0.73v2.43c0,0.56,0.04,1.21,0.98,1.21c0.95,0,0.98-0.65,0.98-1.21v-2.43h0.73v2.67
			c0,1.07-0.68,1.6-1.72,1.6c-1.03,0-1.72-0.53-1.72-1.6V46.23z"/>
		<path class="st1" d="M84.39,47.56c-0.12-0.48-0.43-0.83-1.04-0.83c-0.89,0-1.27,0.79-1.27,1.59c0,0.8,0.38,1.59,1.27,1.59
			c0.65,0,1-0.49,1.07-1.1h0.71c-0.06,1-0.77,1.69-1.78,1.69c-1.26,0-2-0.99-2-2.19c0-1.19,0.75-2.19,2-2.19
			c0.94,0.01,1.69,0.53,1.77,1.43H84.39z"/>
		<path class="st1" d="M90.88,46.23h0.78l1.61,4.17h-0.79l-0.39-1.11h-1.67l-0.39,1.11h-0.76L90.88,46.23z M90.61,48.74h1.28
			l-0.63-1.79h-0.02L90.61,48.74z"/>
		<path class="st1" d="M96.68,46.23h3.38v0.63h-1.33v3.55h-0.73v-3.55h-1.32L96.68,46.23L96.68,46.23z"/>
		<path class="st1" d="M104.51,46.23h0.73v4.17h-0.73V46.23z"/>
		<path class="st1" d="M113.88,48.32c0,1.19-0.75,2.19-2,2.19c-1.25,0-2-0.99-2-2.19c0-1.19,0.75-2.19,2-2.19
			C113.14,46.13,113.88,47.13,113.88,48.32z M110.62,48.32c0,0.8,0.38,1.59,1.27,1.59c0.89,0,1.27-0.79,1.27-1.59
			c0-0.8-0.38-1.59-1.27-1.59S110.62,47.51,110.62,48.32z"/>
		<path class="st1" d="M118.49,46.23h0.77l1.9,3.08h0.01v-3.08h0.69v4.17h-0.77l-1.9-3.07h-0.02v3.07h-0.69L118.49,46.23
			L118.49,46.23z"/>
	</g>
</g>
</svg>
