<?xml version="1.0" encoding="utf-8"?>
<!-- Generator: Adobe Illustrator 23.0.3, SVG Export Plug-In . SVG Version: 6.00 Build 0)  -->
<svg version="1.1" id="Layer_1" xmlns="http://www.w3.org/2000/svg" xmlns:xlink="http://www.w3.org/1999/xlink" x="0px" y="0px"
	 viewBox="0 0 425 78.7" style="enable-background:new 0 0 425 78.7;" xml:space="preserve">
<style type="text/css">
	.st0{fill:#145CA5;}
	.st1{fill:#FFFFFF;}
	.st2{fill:#FFC843;}
</style>
<g>
	<polygon class="st0" points="-0.32,0 -0.32,78.7 157.37,78.7 237.51,0 	"/>
	<polygon class="st0" points="243.81,0 164.32,78.7 225.84,78.7 308.09,0 	"/>
	<rect x="-105.43" y="-0.09" class="st0" width="105.11" height="0.09"/>
</g>
<polygon class="st1" points="237.51,0 157.37,78.7 164.32,78.7 243.81,0 "/>
<g>
	<g>
		<path class="st2" d="M160.4,29.6H67.92L55.8,17.48c-0.43-0.43-1.01-0.67-1.62-0.67c-0.61,0-1.18,0.24-1.61,0.67L33.51,36.54
			c-0.89,0.89-0.89,2.34,0,3.23l19.06,19.06c0.43,0.43,1.01,0.67,1.61,0.67c0.61,0,1.18-0.24,1.62-0.67l12.75-12.75h75.36
			L160.4,29.6z"/>
		<g>
			<path d="M57.79,37.89l-0.45-1.61l3.57-0.86l-0.92-3.81l-1.5,0.36l0.37-2.26l-2.73-3.3l-1.85-0.88l-1.39,0.42l-0.7,0.5l-1.41,3.29
				l-3.58,2.01l0.73,1.4l4.08-2.27l0.39-0.9l0.62,3.19l-2.83,4.61l-1.06,6.5l2.18,0.36l0.99-6.07l2.33-3.79l1.13,4.08l3.98,5.77
				l1.82-1.25L57.79,37.89z M57.19,30.16l-0.36,2.21l-0.52,0.12l-0.1-3.52L57.19,30.16z"/>
			<path d="M52.66,25.65c1.01,0,1.83-0.82,1.83-1.83c0-1.01-0.82-1.83-1.83-1.83c-1.01,0-1.83,0.82-1.83,1.83
				C50.83,24.83,51.65,25.65,52.66,25.65z"/>
		</g>
		<rect x="42.07" y="45.63" width="24.39" height="0.63"/>
	</g>
	<g>
		<g>
			<g>
				<path d="M75.03,35.35c-0.36,0.38-0.56,0.92-0.61,1.63l5.51-0.01v1.65h-5.52c0,0.33,0.04,0.65,0.11,0.96
					c0.08,0.31,0.23,0.59,0.46,0.84c0.2,0.24,0.44,0.38,0.72,0.44c0.28,0.06,0.56,0.08,0.85,0.08c0.02,0,0.04,0,0.06,0
					c0.02,0,0.04,0,0.06,0l3.27-0.01v1.65h-3.36c-0.54,0-1.05-0.05-1.55-0.15c-0.5-0.1-0.97-0.32-1.41-0.67
					c-0.53-0.43-0.89-0.96-1.1-1.57c-0.21-0.62-0.32-1.25-0.34-1.9c-0.01-0.14-0.01-0.28-0.01-0.41c0-0.13,0.01-0.26,0.02-0.39
					c0.1-1.49,0.5-2.59,1.22-3.29c0.72-0.7,1.79-1.05,3.22-1.05l3.31-0.02v1.65h-3.27C75.94,34.78,75.39,34.97,75.03,35.35z"/>
				<path d="M72.83,42.74c-0.17-0.14-0.33-0.29-0.48-0.45L55.8,58.83c-0.43,0.43-1.01,0.67-1.62,0.67c-0.61,0-1.18-0.24-1.61-0.67
					L33.51,39.77c-0.89-0.89-0.89-2.34,0-3.23l19.06-19.06c0.43-0.43,1.01-0.67,1.61-0.67c0.61,0,1.18,0.24,1.62,0.67l16.3,16.3
					c0.13-0.17,0.27-0.34,0.42-0.49c0.38-0.37,0.82-0.66,1.32-0.89L57.36,15.92c-0.85-0.85-1.98-1.32-3.18-1.32
					c-1.2,0-2.33,0.47-3.17,1.32L31.95,34.98c-1.75,1.75-1.75,4.6,0,6.35l19.06,19.06c0.85,0.85,1.97,1.31,3.17,1.31
					c1.2,0,2.33-0.47,3.18-1.31l16.87-16.87C73.74,43.35,73.27,43.09,72.83,42.74z"/>
			</g>
		</g>
		<g>
			<path d="M44,34.8c-0.43,0.01-0.79,0.1-1.09,0.27c-0.29,0.17-0.44,0.5-0.44,0.98c0,0.37,0.12,0.63,0.37,0.79
				c0.25,0.16,0.54,0.24,0.88,0.24l2.63-0.01c0.1,0.01,0.2,0.01,0.3,0.01c0.1,0,0.21,0.01,0.32,0.01c0.31,0.02,0.61,0.07,0.91,0.15
				c0.3,0.08,0.56,0.24,0.79,0.46c0.21,0.19,0.37,0.43,0.47,0.7c0.11,0.27,0.17,0.55,0.2,0.84c0.01,0.09,0.01,0.17,0.02,0.26
				c0,0.08,0.01,0.17,0.01,0.26c-0.02,1.1-0.32,1.84-0.91,2.23c-0.59,0.39-1.39,0.59-2.4,0.59h-5.29v-1.69h4.98
				c0.44,0.01,0.82-0.06,1.14-0.21c0.32-0.15,0.45-0.49,0.39-1.01c-0.04-0.41-0.2-0.67-0.46-0.76c-0.26-0.1-0.58-0.15-0.94-0.16
				l-2.34-0.01c-0.97,0.01-1.75-0.19-2.31-0.59c-0.57-0.4-0.85-1.12-0.84-2.17c0.02-1.1,0.32-1.85,0.92-2.25
				c0.59-0.4,1.39-0.6,2.4-0.6l5.2-0.01v1.69H44z"/>
			<path d="M63.76,34.32c0.57-0.79,1.84-1.18,3.79-1.18l3.03-0.01v1.65h-3.2c-0.83,0.02-1.45,0.2-1.84,0.54
				c-0.39,0.34-0.61,0.93-0.65,1.78l5.69-0.01v1.63h-5.69v3.87H62.9v-4.35C62.9,36.41,63.19,35.11,63.76,34.32z"/>
			<path d="M75.08,35.35c-0.36,0.38-0.56,0.92-0.61,1.63l5.51-0.01v1.65h-5.52c0,0.33,0.04,0.65,0.11,0.96
				c0.07,0.31,0.23,0.59,0.45,0.84c0.2,0.24,0.44,0.38,0.72,0.44c0.28,0.06,0.56,0.09,0.85,0.09c0.02,0,0.04,0,0.06,0s0.04,0,0.06,0
				l3.27-0.01v1.65h-3.36c-0.54,0-1.05-0.05-1.55-0.14c-0.5-0.1-0.96-0.32-1.4-0.67c-0.53-0.43-0.9-0.96-1.11-1.57
				c-0.21-0.62-0.32-1.25-0.34-1.9c-0.01-0.14-0.01-0.28-0.01-0.41c0-0.13,0.01-0.26,0.02-0.39c0.1-1.49,0.5-2.59,1.22-3.29
				c0.72-0.7,1.79-1.05,3.22-1.05l3.31-0.01v1.65h-3.27C75.99,34.77,75.44,34.97,75.08,35.35z"/>
			<path d="M91.59,33.12c1.44,0.01,2.51,0.36,3.23,1.07c0.71,0.7,1.12,1.8,1.21,3.29c0.01,0.13,0.02,0.26,0.02,0.39
				c0,0.13,0,0.27-0.01,0.41c-0.02,0.65-0.13,1.28-0.34,1.9c-0.21,0.62-0.58,1.14-1.11,1.57c-0.43,0.35-0.89,0.58-1.39,0.67
				c-0.5,0.1-1.02,0.14-1.56,0.14h-4.39v-9.46H91.59z M91.55,34.76h-2.3v6.16h2.3c0.02,0.01,0.04,0.01,0.06,0.01
				c0.02,0,0.04,0,0.06,0c0.29,0,0.57-0.03,0.85-0.09c0.28-0.06,0.52-0.2,0.73-0.44c0.21-0.25,0.36-0.52,0.44-0.83
				c0.08-0.31,0.14-0.62,0.16-0.94c0.01-0.13,0.01-0.26,0.01-0.39c0-0.13,0-0.26,0-0.4c0-0.13,0-0.27,0-0.42
				c0-0.15-0.01-0.29-0.03-0.43c-0.02-0.31-0.07-0.61-0.15-0.91c-0.08-0.3-0.23-0.56-0.44-0.79c-0.21-0.24-0.45-0.39-0.73-0.45
				c-0.28-0.06-0.56-0.09-0.85-0.09c-0.02,0-0.04,0-0.06,0c-0.02,0-0.04,0-0.06,0V34.76z"/>
			<path d="M103.23,33.12c0.1,0.01,0.19,0.01,0.28,0.01c0.09,0,0.19,0,0.28,0.01c0.36,0.02,0.71,0.08,1.06,0.17
				c0.35,0.1,0.65,0.28,0.92,0.54c0.24,0.23,0.42,0.5,0.53,0.8c0.12,0.31,0.19,0.62,0.22,0.95c0,0.06,0,0.12,0.01,0.19
				c0,0.06,0.01,0.12,0.01,0.19c0.01,0.66-0.14,1.23-0.46,1.7c-0.31,0.48-0.8,0.8-1.46,0.96l2.36,3.94h-2.24l-2.08-3.71h-2.34v3.71
				h-1.99v-9.46H103.23z M102.76,34.8h-2.44v2.38h2.44c0.02,0.01,0.03,0.01,0.05,0.01c0.02,0,0.03,0,0.05,0
				c0.42,0,0.81-0.06,1.15-0.19c0.35-0.13,0.51-0.46,0.51-1.01c0-0.56-0.18-0.9-0.55-1.01c-0.36-0.11-0.77-0.17-1.22-0.17V34.8z"/>
			<path d="M109.15,42.57v-9.46h2.08v9.46H109.15z"/>
			<path d="M112.73,33.12h2.24l2.85,7.05l2.91-7.05h2.12l-3.95,9.46h-2.05L112.73,33.12z"/>
			<path d="M126.53,35.35c-0.36,0.38-0.56,0.92-0.61,1.63l5.5-0.01v1.65h-5.52c0,0.33,0.04,0.65,0.11,0.96
				c0.07,0.31,0.23,0.59,0.45,0.84c0.2,0.24,0.44,0.38,0.72,0.44c0.28,0.06,0.56,0.09,0.85,0.09c0.02,0,0.04,0,0.06,0s0.04,0,0.06,0
				l3.27-0.01v1.65h-3.36c-0.53,0-1.05-0.05-1.55-0.14c-0.5-0.1-0.96-0.32-1.4-0.67c-0.53-0.43-0.9-0.96-1.11-1.57
				c-0.21-0.62-0.32-1.25-0.34-1.9c-0.01-0.14-0.01-0.28-0.01-0.41c0-0.13,0.01-0.26,0.02-0.39c0.1-1.49,0.5-2.59,1.22-3.29
				c0.72-0.7,1.79-1.05,3.22-1.05l3.31-0.01v1.65h-3.27C127.43,34.77,126.89,34.97,126.53,35.35z"/>
			<path d="M138.99,33.12c0.1,0.01,0.19,0.01,0.28,0.01c0.09,0,0.18,0,0.28,0.01c0.36,0.02,0.71,0.08,1.06,0.17
				c0.35,0.1,0.65,0.28,0.92,0.54c0.24,0.23,0.41,0.5,0.53,0.8c0.12,0.31,0.19,0.62,0.22,0.95c0,0.06,0,0.12,0.01,0.19
				c0.01,0.06,0.01,0.12,0.01,0.19c0.01,0.66-0.14,1.23-0.46,1.7c-0.31,0.48-0.8,0.8-1.46,0.96l2.36,3.94h-2.24l-2.08-3.71h-2.35
				v3.71h-1.99v-9.46H138.99z M138.52,34.8h-2.44v2.38h2.44c0.02,0.01,0.03,0.01,0.05,0.01c0.02,0,0.03,0,0.05,0
				c0.42,0,0.81-0.06,1.15-0.19c0.35-0.13,0.51-0.46,0.51-1.01c0-0.56-0.18-0.9-0.55-1.01c-0.36-0.11-0.77-0.17-1.22-0.17V34.8z"/>
		</g>
	</g>
	<g>
		<path class="st1" d="M74.19,49.2h3.21v0.67h-2.43v1.17h2.24v0.64h-2.24v1.3h2.47v0.67h-3.25V49.2z"/>
		<path class="st1" d="M82.35,49.2h1.85c1.37,0,1.96,1,1.96,2.23c0,1.23-0.59,2.23-1.96,2.23h-1.85V49.2z M83.13,53.02h0.77
			c1.22,0,1.48-0.7,1.48-1.59c0-0.89-0.26-1.59-1.48-1.59h-0.77V53.02z"/>
		<path class="st1" d="M91.03,49.2h0.78v2.59c0,0.6,0.04,1.29,1.05,1.29c1.01,0,1.05-0.69,1.05-1.29V49.2h0.78v2.85
			c0,1.14-0.73,1.71-1.83,1.71s-1.83-0.57-1.83-1.71V49.2z"/>
		<path class="st1" d="M102.81,50.62c-0.13-0.51-0.46-0.89-1.11-0.89c-0.95,0-1.35,0.84-1.35,1.7c0,0.85,0.4,1.7,1.35,1.7
			c0.69,0,1.07-0.52,1.14-1.17h0.76c-0.06,1.07-0.82,1.8-1.9,1.8c-1.34,0-2.13-1.06-2.13-2.33c0-1.27,0.8-2.33,2.13-2.33
			c1,0.01,1.8,0.56,1.89,1.52H102.81z"/>
		<path class="st1" d="M109.73,49.2h0.83l1.72,4.45h-0.84l-0.42-1.18h-1.78l-0.42,1.18h-0.81L109.73,49.2z M109.45,51.88h1.36
			l-0.67-1.91h-0.02L109.45,51.88z"/>
		<path class="st1" d="M115.92,49.2h3.6v0.67h-1.42v3.78h-0.78v-3.78h-1.41V49.2z"/>
		<path class="st1" d="M124.27,49.2h0.78v4.45h-0.78V49.2z"/>
		<path class="st1" d="M134.26,51.43c0,1.27-0.8,2.33-2.13,2.33c-1.33,0-2.13-1.06-2.13-2.33c0-1.27,0.8-2.33,2.13-2.33
			C133.47,49.1,134.26,50.16,134.26,51.43z M130.78,51.43c0,0.85,0.4,1.7,1.35,1.7c0.95,0,1.35-0.84,1.35-1.7
			c0-0.85-0.4-1.7-1.35-1.7C131.18,49.73,130.78,50.57,130.78,51.43z"/>
		<path class="st1" d="M139.17,49.2h0.82l2.03,3.28h0.01V49.2h0.74v4.45h-0.82l-2.03-3.27h-0.02v3.27h-0.74V49.2z"/>
	</g>
</g>
</svg>
